<svg width="163" height="140" viewBox="0 0 163 140" fill="none" xmlns="http://www.w3.org/2000/svg">
<path d="M19.793 115.557L3.38537 74.5416L9.82086 71.9672L23.883 107.119L34.4944 102.874L36.84 108.738L19.793 115.557Z" fill="#E4DBEE"/>
<path d="M132.577 100.54L133.278 97.9215L139.617 99.6198L138.803 102.655C138.059 105.432 138.848 107.132 141.169 107.754C143.49 108.376 145.022 107.298 145.766 104.521C146.085 103.33 146.138 102.143 145.923 100.959C145.729 99.7799 145.357 98.6702 144.806 97.6297C144.281 96.5747 143.664 95.5057 142.955 94.4227C142.251 93.3199 141.545 92.1846 140.837 91.017C140.155 89.8348 139.565 88.6243 139.068 87.3854C138.59 86.1519 138.295 84.7545 138.182 83.1933C138.088 81.6375 138.262 80.0363 138.703 78.3898C139.623 74.9579 141.163 72.5427 143.324 71.1443C145.51 69.7314 148.219 69.4582 151.453 70.3246C154.686 71.191 156.886 72.7798 158.053 75.0911C159.245 77.3878 159.381 80.252 158.461 83.6839L158.095 85.0527L151.757 83.3544L152.235 81.5691C152.985 78.772 152.238 77.0731 149.997 76.4725C148.886 76.1748 147.962 76.2888 147.226 76.8144C146.495 77.3202 145.933 78.3071 145.54 79.7751C145.221 80.9653 145.159 82.1499 145.353 83.3289C145.567 84.5132 145.937 85.6328 146.462 86.6878C147.013 87.7283 147.64 88.7999 148.344 89.9028C149.053 90.9858 149.749 92.1184 150.431 93.3006C151.119 94.4629 151.702 95.6609 152.179 96.8944C152.676 98.1332 152.972 99.5306 153.065 101.086C153.178 102.648 153.014 104.251 152.573 105.898C151.653 109.33 150.091 111.75 147.885 113.157C145.685 114.545 142.958 114.803 139.705 113.931C136.451 113.06 134.219 111.473 133.007 109.171C131.801 106.849 131.657 103.972 132.577 100.54Z" fill="#E4DBEE"/>
<path d="M41.8515 100.331L38.9272 77.5369C38.4777 74.0332 39.0366 71.2077 40.604 69.0603C42.1713 66.9129 44.6355 65.6236 47.9966 65.1924C51.3577 64.7612 54.0573 65.388 56.0956 67.0729C58.1542 68.7551 59.4082 71.348 59.8577 74.8517L62.782 97.6461C63.2315 101.15 62.6726 103.975 61.1053 106.123C59.5584 108.268 57.1043 109.556 53.7432 109.987C50.3821 110.418 47.6723 109.792 45.6137 108.11C43.5551 106.428 42.301 103.835 41.8515 100.331ZM48.8119 99.8732C49.183 102.766 50.5602 104.059 52.9436 103.753C55.3065 103.45 56.3025 101.852 55.9314 98.9598L52.8973 75.3099C52.5288 72.4377 51.1631 71.1531 48.8002 71.4563C46.4168 71.762 45.4094 73.351 45.7779 76.2232L48.8119 99.8732Z" fill="#E4DBEE"/>
<path d="M103.2 108.259L109.23 64.4972L120.094 65.9941C123.492 66.4622 125.918 67.7398 127.372 69.8266C128.846 71.9163 129.341 74.721 128.856 78.2407L125.807 100.366C125.322 103.886 124.087 106.452 122.103 108.065C120.142 109.661 117.462 110.224 114.065 109.756L103.2 108.259ZM110.929 102.949L114.805 103.483C115.944 103.64 116.853 103.434 117.533 102.864C118.236 102.277 118.691 101.231 118.899 99.725L122.035 76.9589C122.243 75.4534 122.086 74.333 121.566 73.5979C121.068 72.8452 120.25 72.3904 119.11 72.2334L115.235 71.6994L110.929 102.949Z" fill="#E4DBEE"/>
<path d="M43.0074 139.475C42.866 139.475 42.7504 139.43 42.6604 139.34C42.5704 139.251 42.5254 139.135 42.5254 138.993V126.461C42.5254 126.32 42.5704 126.204 42.6604 126.114C42.7504 126.024 42.866 125.979 43.0074 125.979H48.2711C49.3123 125.979 50.212 126.14 50.9704 126.461C51.7417 126.782 52.3394 127.271 52.7635 127.926C53.2006 128.569 53.4191 129.372 53.4191 130.336C53.4191 131.313 53.2006 132.123 52.7635 132.766C52.3394 133.396 51.7417 133.865 50.9704 134.173C50.212 134.482 49.3123 134.636 48.2711 134.636H45.6875V138.993C45.6875 139.135 45.6425 139.251 45.5525 139.34C45.4625 139.43 45.3468 139.475 45.2055 139.475H43.0074ZM45.6296 132.245H48.1747C48.8302 132.245 49.338 132.084 49.6979 131.763C50.0706 131.442 50.257 130.96 50.257 130.317C50.257 129.751 50.0899 129.289 49.7557 128.929C49.4344 128.569 48.9074 128.389 48.1747 128.389H45.6296V132.245ZM55.3867 139.475C55.271 139.475 55.1746 139.437 55.0975 139.36C55.0204 139.27 54.9818 139.173 54.9818 139.071C54.9818 139.006 54.9882 138.948 55.0011 138.897L59.5899 126.499C59.6285 126.358 59.7056 126.236 59.8213 126.133C59.937 126.03 60.0977 125.979 60.3033 125.979H62.7713C62.9769 125.979 63.1376 126.03 63.2533 126.133C63.369 126.236 63.4461 126.358 63.4847 126.499L68.0735 138.897C68.0863 138.948 68.0928 139.006 68.0928 139.071C68.0928 139.173 68.0542 139.27 67.9771 139.36C67.9 139.437 67.8036 139.475 67.6879 139.475H65.6827C65.4899 139.475 65.3485 139.43 65.2585 139.34C65.1685 139.251 65.1107 139.167 65.085 139.09L64.2559 136.93H58.8187L57.9896 139.09C57.9639 139.167 57.9061 139.251 57.8161 139.34C57.7261 139.43 57.5847 139.475 57.3919 139.475H55.3867ZM59.5321 134.443H63.5232L61.5373 128.89L59.5321 134.443ZM71.9115 139.475C71.7701 139.475 71.6544 139.43 71.5644 139.34C71.4745 139.251 71.4295 139.135 71.4295 138.993V126.461C71.4295 126.32 71.4745 126.204 71.5644 126.114C71.6544 126.024 71.7701 125.979 71.9115 125.979H74.0517C74.1931 125.979 74.3087 126.024 74.3987 126.114C74.4887 126.204 74.5337 126.32 74.5337 126.461V136.892H80.5108C80.6521 136.892 80.7678 136.937 80.8578 137.027C80.9478 137.117 80.9928 137.232 80.9928 137.374V138.993C80.9928 139.135 80.9478 139.251 80.8578 139.34C80.7678 139.43 80.6521 139.475 80.5108 139.475H71.9115ZM83.6506 139.475C83.5349 139.475 83.4385 139.437 83.3614 139.36C83.2842 139.27 83.2457 139.173 83.2457 139.071C83.2457 139.006 83.2521 138.948 83.265 138.897L87.8538 126.499C87.8924 126.358 87.9695 126.236 88.0852 126.133C88.2009 126.03 88.3615 125.979 88.5672 125.979H91.0351C91.2408 125.979 91.4015 126.03 91.5172 126.133C91.6328 126.236 91.71 126.358 91.7485 126.499L96.3374 138.897C96.3502 138.948 96.3567 139.006 96.3567 139.071C96.3567 139.173 96.3181 139.27 96.241 139.36C96.1638 139.437 96.0674 139.475 95.9518 139.475H93.9465C93.7537 139.475 93.6123 139.43 93.5224 139.34C93.4324 139.251 93.3745 139.167 93.3488 139.09L92.5198 136.93H87.0826L86.2535 139.09C86.2278 139.167 86.1699 139.251 86.08 139.34C85.99 139.43 85.8486 139.475 85.6558 139.475H83.6506ZM87.796 134.443H91.7871L89.8012 128.89L87.796 134.443ZM104.771 139.668C103.563 139.668 102.534 139.469 101.686 139.071C100.851 138.659 100.201 138.068 99.7387 137.297C99.276 136.513 99.0189 135.561 98.9675 134.443C98.9546 133.916 98.9482 133.351 98.9482 132.746C98.9482 132.142 98.9546 131.564 98.9675 131.011C99.0189 129.906 99.276 128.967 99.7387 128.196C100.214 127.412 100.876 126.814 101.725 126.403C102.573 125.992 103.588 125.786 104.771 125.786C105.632 125.786 106.416 125.895 107.123 126.114C107.83 126.332 108.441 126.647 108.955 127.059C109.469 127.47 109.868 127.952 110.15 128.505C110.433 129.057 110.587 129.674 110.613 130.356C110.613 130.471 110.568 130.568 110.478 130.645C110.401 130.722 110.305 130.761 110.189 130.761H107.991C107.837 130.761 107.715 130.722 107.625 130.645C107.535 130.568 107.464 130.439 107.412 130.259C107.22 129.501 106.898 128.98 106.448 128.697C105.999 128.415 105.439 128.273 104.771 128.273C103.974 128.273 103.344 128.492 102.881 128.929C102.419 129.366 102.168 130.092 102.13 131.108C102.091 132.162 102.091 133.241 102.13 134.347C102.168 135.362 102.419 136.088 102.881 136.525C103.344 136.963 103.974 137.181 104.771 137.181C105.439 137.181 105.999 137.04 106.448 136.757C106.911 136.461 107.233 135.941 107.412 135.195C107.464 135.002 107.535 134.874 107.625 134.81C107.715 134.732 107.837 134.694 107.991 134.694H110.189C110.305 134.694 110.401 134.732 110.478 134.81C110.568 134.887 110.613 134.983 110.613 135.099C110.587 135.78 110.433 136.397 110.15 136.95C109.868 137.502 109.469 137.984 108.955 138.396C108.441 138.807 107.83 139.122 107.123 139.34C106.416 139.559 105.632 139.668 104.771 139.668ZM114.938 139.475C114.797 139.475 114.681 139.43 114.591 139.34C114.501 139.251 114.456 139.135 114.456 138.993V126.461C114.456 126.32 114.501 126.204 114.591 126.114C114.681 126.024 114.797 125.979 114.938 125.979H123.672C123.814 125.979 123.929 126.024 124.019 126.114C124.109 126.204 124.154 126.32 124.154 126.461V128.003C124.154 128.132 124.109 128.241 124.019 128.331C123.929 128.421 123.814 128.466 123.672 128.466H117.425V131.493H123.248C123.39 131.493 123.505 131.538 123.595 131.628C123.685 131.718 123.73 131.834 123.73 131.975V133.402C123.73 133.531 123.685 133.64 123.595 133.73C123.505 133.82 123.39 133.865 123.248 133.865H117.425V136.988H123.827C123.968 136.988 124.084 137.033 124.174 137.123C124.264 137.213 124.309 137.329 124.309 137.47V138.993C124.309 139.135 124.264 139.251 124.174 139.34C124.084 139.43 123.968 139.475 123.827 139.475H114.938Z" fill="#E4DBEE"/>
<path d="M103.718 31.8256H82.132H60.5459L48.181 47.9628L82.132 80.0277L116.083 47.9628L103.718 31.8256Z" fill="#8C0DF2"/>
<path d="M106.652 48.8011L81.9224 73.5309L57.1927 48.8011L65.1565 38.1128H81.9224H98.6884L106.652 48.8011Z" fill="#4F348B"/>
<path d="M81.9224 73.5309L106.652 48.8011M81.9224 73.5309L89.2575 48.8011M81.9224 73.5309L57.1927 48.8011M81.9224 73.5309L74.5874 48.8011M106.652 48.8011L98.6884 38.1128M106.652 48.8011H89.2575M98.6884 38.1128H81.9224M98.6884 38.1128L89.2575 48.8011M81.9224 38.1128L89.2575 48.8011M81.9224 38.1128H65.1565M81.9224 38.1128L74.5874 48.8011M89.2575 48.8011H74.5874M57.1927 48.8011L65.1565 38.1128M57.1927 48.8011H74.5874M65.1565 38.1128L74.5874 48.8011" stroke="#E4DBEE" stroke-width="3.35319"/>
<path d="M105.89 7.85367L99.6353 37.5686L129.051 45.1051L99.3364 38.8502L91.8 68.2663L98.0549 38.5513L68.6388 31.0149L98.3538 37.2697L105.89 7.85367Z" fill="white"/>
<path d="M72.5746 117.531V73.3552H83.0486C86.6015 73.3552 89.1995 74.187 90.8425 75.8505C92.506 77.514 93.3378 80.0709 93.3378 83.5212V87.0022C93.3378 91.541 91.818 94.5291 88.7785 95.9668C90.442 96.665 91.6229 97.7946 92.3212 99.3554C93.04 100.916 93.3994 102.919 93.3994 105.363V112.171C93.3994 114.615 93.6458 116.401 94.1387 117.531H87.0842C86.9199 117.017 86.8069 116.638 86.7453 116.391C86.6837 116.124 86.6118 115.631 86.5297 114.912C86.4681 114.173 86.4372 113.239 86.4372 112.109V105.178C86.4372 103.145 86.0778 101.697 85.359 100.834C84.6402 99.9715 83.4901 99.5402 81.9088 99.5402H79.5059V117.531H72.5746ZM79.5059 93.2558H82.2168C83.5928 93.2558 84.63 92.9067 85.3282 92.2084C86.0265 91.4896 86.3756 90.2779 86.3756 88.5733V84.2297C86.3756 82.6483 86.0984 81.4982 85.5439 80.7794C84.9894 80.0401 84.096 79.6704 82.8638 79.6704H79.5059V93.2558Z" fill="#E4DBEE"/>
</svg>
