<svg width="64" height="64" viewBox="0 0 64 64" fill="none" xmlns="http://www.w3.org/2000/svg">
<rect width="64" height="64" rx="14" fill="#402971"/>
<path d="M34.7966 26.2089H29.2008C26.8833 26.2089 23.3981 24.2492 22.1111 22.9532C20.2998 21.1284 20.2998 18.1562 22.1133 16.3314C23.8751 14.5584 26.9486 14.5584 28.7126 16.3314C29.6868 17.3124 32.2743 21.2972 31.9188 23.9567H32.0786C31.7231 21.2972 34.3106 17.3124 35.2871 16.3314C37.0466 14.5584 40.1201 14.5539 41.8863 16.3314C43.7021 18.1562 43.7021 21.1262 41.8863 22.9509C40.5993 24.2469 37.1141 26.2089 34.7966 26.2089ZM34.7966 23.9589C36.3513 23.9589 39.3213 22.3434 40.2888 21.3669C41.2338 20.4174 41.2338 18.8694 40.2888 17.9199C39.3753 16.9997 37.7891 17.0042 36.8801 17.9199C35.3636 19.4454 33.8561 23.3424 34.3803 23.8847C34.3826 23.8847 34.4771 23.9589 34.7966 23.9589ZM25.4141 17.2089C24.7706 17.2089 24.1653 17.4609 23.7086 17.9199C22.7658 18.8694 22.7658 20.4174 23.7086 21.3669C24.6783 22.3434 27.6461 23.9589 29.2008 23.9589C29.5226 23.9589 29.6171 23.8869 29.6171 23.8869C30.1413 23.3402 28.6338 19.4432 27.1173 17.9199C26.6606 17.4609 26.0553 17.2089 25.4141 17.2089Z" fill="#E946F7"/>
<path d="M16.25 30.709V46.459C16.25 47.701 17.2602 48.709 18.5 48.709H45.5C46.742 48.709 47.75 47.701 47.75 46.459V30.709H16.25Z" fill="#E946F7"/>
<path d="M47.75 23.959H16.25C15.0102 23.959 14 24.9692 14 26.209V31.834C14 32.455 14.504 32.959 15.125 32.959H48.875C49.496 32.959 50 32.455 50 31.834V26.209C50 24.967 48.992 23.959 47.75 23.959Z" fill="#E946F7"/>
<path d="M34.25 23.959H29.75V48.709H34.25V23.959Z" fill="#E946F7"/>
</svg>
