<svg width="71" height="36" viewBox="0 0 71 36" fill="none" xmlns="http://www.w3.org/2000/svg">
<rect x="0.5" y="0.5" width="70" height="35" rx="17.5" fill="url(#paint0_linear_11942_3862)"/>
<rect x="0.5" y="0.5" width="70" height="35" rx="17.5" stroke="url(#paint1_linear_11942_3862)" style="mix-blend-mode:overlay"/>
<path d="M19.7483 23C19.655 23 19.5756 22.9673 19.5103 22.902C19.445 22.8367 19.4123 22.7573 19.4123 22.664V13.55C19.4123 13.4473 19.4403 13.3633 19.4963 13.298C19.5616 13.2327 19.6456 13.2 19.7483 13.2H23.8083C24.9003 13.2 25.717 13.4427 26.2583 13.928C26.7996 14.404 27.0703 15.0573 27.0703 15.888C27.0703 16.3733 26.949 16.7887 26.7063 17.134C26.473 17.47 26.1976 17.7127 25.8803 17.862C26.2723 18.0393 26.6036 18.3287 26.8743 18.73C27.145 19.1313 27.2803 19.5887 27.2803 20.102C27.2803 20.97 26.9863 21.67 26.3983 22.202C25.8103 22.734 24.989 23 23.9343 23H19.7483ZM23.5563 17.218C24.0323 17.218 24.3963 17.1013 24.6483 16.868C24.9096 16.6347 25.0403 16.322 25.0403 15.93C25.0403 15.538 24.9143 15.2347 24.6623 15.02C24.4103 14.8053 24.0416 14.698 23.5563 14.698H21.3863V17.218H23.5563ZM23.6963 21.502C24.1816 21.502 24.5596 21.3713 24.8303 21.11C25.101 20.8393 25.2363 20.4987 25.2363 20.088C25.2363 19.6773 25.0963 19.3413 24.8163 19.08C24.5456 18.8093 24.1723 18.674 23.6963 18.674H21.3863V21.502H23.6963ZM30.9696 23.14C30.4936 23.14 30.055 23.0467 29.6536 22.86C29.2616 22.664 28.949 22.4027 28.7156 22.076C28.4916 21.7493 28.3796 21.39 28.3796 20.998C28.3796 20.3633 28.6363 19.85 29.1496 19.458C29.663 19.066 30.3676 18.8 31.2636 18.66L33.1816 18.38V18.086C33.1816 17.6847 33.079 17.3813 32.8736 17.176C32.6683 16.9707 32.3416 16.868 31.8936 16.868C31.5856 16.868 31.3383 16.924 31.1516 17.036C30.965 17.148 30.811 17.2647 30.6896 17.386C30.5776 17.498 30.503 17.5727 30.4656 17.61C30.4283 17.722 30.3583 17.778 30.2556 17.778H29.1636C29.0796 17.778 29.005 17.75 28.9396 17.694C28.8836 17.638 28.8556 17.5633 28.8556 17.47C28.865 17.2367 28.977 16.9753 29.1916 16.686C29.4156 16.3873 29.7563 16.1307 30.2136 15.916C30.671 15.692 31.2356 15.58 31.9076 15.58C33.009 15.58 33.8116 15.8273 34.3156 16.322C34.8196 16.8167 35.0716 17.4653 35.0716 18.268V22.664C35.0716 22.7573 35.039 22.8367 34.9736 22.902C34.9176 22.9673 34.8383 23 34.7356 23H33.5736C33.4803 23 33.401 22.9673 33.3356 22.902C33.2703 22.8367 33.2376 22.7573 33.2376 22.664V22.118C33.0323 22.4167 32.743 22.664 32.3696 22.86C31.9963 23.0467 31.5296 23.14 30.9696 23.14ZM31.4456 21.796C31.959 21.796 32.379 21.628 32.7056 21.292C33.0323 20.956 33.1956 20.4707 33.1956 19.836V19.556L31.7956 19.78C30.7223 19.948 30.1856 20.3073 30.1856 20.858C30.1856 21.1567 30.307 21.39 30.5496 21.558C30.8016 21.7167 31.1003 21.796 31.4456 21.796ZM40.0174 23.14C38.9907 23.14 38.1694 22.8553 37.5534 22.286C36.9467 21.7167 36.6247 20.928 36.5874 19.92L36.5734 19.36L36.5874 18.8C36.6247 17.792 36.9467 17.0033 37.5534 16.434C38.1694 15.8647 38.9907 15.58 40.0174 15.58C40.7547 15.58 41.3754 15.7107 41.8794 15.972C42.3927 16.2333 42.7707 16.5553 43.0134 16.938C43.2654 17.3113 43.4007 17.6707 43.4194 18.016C43.4287 18.1093 43.396 18.1887 43.3214 18.254C43.256 18.3193 43.1767 18.352 43.0834 18.352H41.8374C41.7347 18.352 41.66 18.3333 41.6134 18.296C41.5667 18.2493 41.52 18.17 41.4734 18.058C41.3334 17.7033 41.1467 17.4467 40.9134 17.288C40.6894 17.1293 40.4 17.05 40.0454 17.05C39.5694 17.05 39.196 17.1993 38.9254 17.498C38.664 17.7967 38.524 18.254 38.5054 18.87L38.4914 19.388L38.5054 19.85C38.5614 21.0633 39.0747 21.67 40.0454 21.67C40.4094 21.67 40.7034 21.5953 40.9274 21.446C41.1514 21.2873 41.3334 21.026 41.4734 20.662C41.5107 20.5593 41.5527 20.4847 41.5994 20.438C41.6554 20.3913 41.7347 20.368 41.8374 20.368H43.0834C43.1767 20.368 43.256 20.4007 43.3214 20.466C43.396 20.5313 43.4287 20.6107 43.4194 20.704C43.4007 21.0307 43.27 21.3853 43.0274 21.768C42.7847 22.1413 42.4114 22.4633 41.9074 22.734C41.4034 23.0047 40.7734 23.14 40.0174 23.14ZM45.2291 23C45.1357 23 45.0564 22.9673 44.9911 22.902C44.9257 22.8367 44.8931 22.7573 44.8931 22.664V13.396C44.8931 13.2933 44.9257 13.214 44.9911 13.158C45.0564 13.0927 45.1357 13.06 45.2291 13.06H46.3911C46.4844 13.06 46.5637 13.0927 46.6291 13.158C46.6944 13.2233 46.7271 13.3027 46.7271 13.396V18.184L49.0511 15.958C49.0791 15.9393 49.1211 15.9067 49.1771 15.86C49.2424 15.804 49.3031 15.7667 49.3591 15.748C49.4151 15.7293 49.4851 15.72 49.5691 15.72H50.8991C50.9924 15.72 51.0671 15.748 51.1231 15.804C51.1791 15.86 51.2071 15.9347 51.2071 16.028C51.2071 16.112 51.1604 16.196 51.0671 16.28L48.2111 18.982L51.4171 22.454C51.5011 22.538 51.5431 22.6173 51.5431 22.692C51.5431 22.7853 51.5151 22.86 51.4591 22.916C51.4031 22.972 51.3331 23 51.2491 23H49.8911C49.7604 23 49.6624 22.986 49.5971 22.958C49.5411 22.9207 49.4664 22.8553 49.3731 22.762L46.7271 19.948V22.664C46.7271 22.7573 46.6944 22.8367 46.6291 22.902C46.5637 22.9673 46.4844 23 46.3911 23H45.2291Z" fill="white"/>
<defs>
<linearGradient id="paint0_linear_11942_3862" x1="35.5" y1="0" x2="35.5" y2="36" gradientUnits="userSpaceOnUse">
<stop stop-color="#ED0DF2"/>
<stop offset="1" stop-color="#B626B9"/>
</linearGradient>
<linearGradient id="paint1_linear_11942_3862" x1="35.5" y1="0" x2="35.5" y2="36" gradientUnits="userSpaceOnUse">
<stop stop-color="white" stop-opacity="0"/>
<stop offset="1" stop-color="white"/>
</linearGradient>
</defs>
</svg>
