<svg width="20" height="20" viewBox="0 0 20 20" fill="none" xmlns="http://www.w3.org/2000/svg">
<path d="M10 20C15.5228 20 20 15.5228 20 10C20 4.47715 15.5228 0 10 0C4.47715 0 0 4.47715 0 10C0 15.5228 4.47715 20 10 20Z" fill="url(#paint0_linear_11942_1309)"/>
<path d="M8.95598 6.51996C8.95598 6.71199 9.11231 6.86797 9.30398 6.86797H10C10.1923 6.86797 10.348 7.02363 10.348 7.21598V8.29512C11.0294 8.43363 11.5664 8.97062 11.7049 9.65199H12.436V9.30398C12.436 8.72828 12.9043 8.25996 13.48 8.25996C14.0557 8.25996 14.5241 8.72828 14.5241 9.30398V9.65199H15.8984C15.7238 6.66605 13.3339 4.27625 10.348 4.10156V5.82395C10.348 6.01629 10.1923 6.17195 10 6.17195H9.30398C9.11231 6.17195 8.95598 6.32793 8.95598 6.51996ZM6.17195 10V10.696C6.17195 10.888 6.32828 11.044 6.51996 11.044C6.71164 11.044 6.86797 10.888 6.86797 10.696V10C6.86797 9.80766 7.02363 9.65199 7.21598 9.65199H8.29512C8.43363 8.97059 8.97062 8.43363 9.65199 8.29512V7.56398H9.30398C8.72828 7.56398 8.25996 7.09566 8.25996 6.51996C8.25996 5.94426 8.72828 5.47594 9.30398 5.47594H9.65199V4.10156C6.66605 4.27625 4.27625 6.66605 4.10156 9.65199H5.82395C6.01629 9.65199 6.17195 9.80766 6.17195 10ZM13.828 10V9.30398C13.828 9.11195 13.6717 8.95598 13.48 8.95598C13.2884 8.95598 13.132 9.11195 13.132 9.30398V10C13.132 10.1923 12.9764 10.348 12.784 10.348H11.7049C11.5664 11.0294 11.0294 11.5664 10.348 11.7049V12.436H10.696C11.2717 12.436 11.74 12.9043 11.74 13.48C11.74 14.0557 11.2717 14.5241 10.696 14.5241H10.348V15.8984C13.3339 15.7238 15.7238 13.3339 15.8984 10.348H14.1761C13.9837 10.348 13.828 10.1923 13.828 10ZM11.044 13.48C11.044 13.288 10.8877 13.132 10.696 13.132H10C9.80766 13.132 9.65199 12.9764 9.65199 12.784V11.7049C8.97059 11.5664 8.43363 11.0294 8.29512 10.348H7.56398V10.696C7.56398 11.2717 7.09566 11.74 6.51996 11.74C5.94426 11.74 5.47594 11.2717 5.47594 10.696V10.348H4.10156C4.27625 13.3339 6.66605 15.7238 9.65199 15.8984V14.1761C9.65199 13.9837 9.80766 13.828 10 13.828H10.696C10.8877 13.828 11.044 13.6721 11.044 13.48Z" fill="url(#paint1_linear_11942_1309)"/>
<defs>
<linearGradient id="paint0_linear_11942_1309" x1="10" y1="20" x2="10" y2="0" gradientUnits="userSpaceOnUse">
<stop stop-color="#FFE59A"/>
<stop offset="1" stop-color="#FFFFD5"/>
</linearGradient>
<linearGradient id="paint1_linear_11942_1309" x1="10" y1="15.8984" x2="10" y2="4.10156" gradientUnits="userSpaceOnUse">
<stop stop-color="#FFDE00"/>
<stop offset="1" stop-color="#FD5900"/>
</linearGradient>
</defs>
</svg>
