<svg width="20" height="20" viewBox="0 0 20 20" fill="none" xmlns="http://www.w3.org/2000/svg">
<g clip-path="url(#clip0_11942_1303)">
<path d="M10 20C15.5228 20 20 15.5228 20 10C20 4.47715 15.5228 0 10 0C4.47715 0 0 4.47715 0 10C0 15.5228 4.47715 20 10 20Z" fill="#FD4084"/>
<path d="M9.99996 3.33329C6.33329 3.33329 3.33329 6.33329 3.33329 9.99996C3.33329 13.6666 6.33329 16.6666 9.99996 16.6666C13.6666 16.6666 16.6666 13.6666 16.6666 9.99996C16.6666 6.33329 13.6666 3.33329 9.99996 3.33329ZM1.66663 9.99996C1.66663 5.41663 5.41663 1.66663 9.99996 1.66663C14.5833 1.66663 18.3333 5.41663 18.3333 9.99996C18.3333 14.5833 14.5833 18.3333 9.99996 18.3333C5.41663 18.3333 1.66663 14.5833 1.66663 9.99996ZM9.99996 4.99996C10.5 4.99996 10.8333 5.33329 10.8333 5.83329V9.66663L13.0833 11.9166C13.4166 12.25 13.4166 12.75 13.0833 13.0833C12.75 13.4166 12.25 13.4166 11.9166 13.0833L9.41663 10.5833C9.24996 10.4166 9.16663 10.25 9.16663 9.99996V5.83329C9.16663 5.33329 9.49996 4.99996 9.99996 4.99996Z" fill="#FFF0F2"/>
</g>
<defs>
<clipPath id="clip0_11942_1303">
<rect width="20" height="20" fill="white"/>
</clipPath>
</defs>
</svg>
